<svg width="170" height="111" viewBox="0 0 170 111" fill="none" xmlns="http://www.w3.org/2000/svg">
<g clip-path="url(#clip0_1_11)">
<path d="M16.7106 36.3209C13.1686 36.3209 10.2974 39.1922 10.2974 42.7341V68.3872C10.2974 71.9294 13.1686 74.8007 16.7106 74.8007C20.2525 74.8007 23.1237 71.9294 23.1237 68.3875V42.7344C23.124 39.1922 20.2525 36.3209 16.7106 36.3209Z" fill="black"/>
<path d="M34.8017 23.4943C31.2598 23.4943 28.3885 26.3655 28.3885 29.9075V81.2139C28.3885 84.7558 31.2598 87.627 34.8017 87.627C38.3437 87.627 41.2149 84.7558 41.2149 81.2139V29.9078C41.2152 26.3658 38.3437 23.4943 34.8017 23.4943Z" fill="black"/>
<path d="M153.208 36.3209C149.667 36.3209 146.795 39.1922 146.795 42.7341V68.3872C146.795 71.9291 149.667 74.8003 153.208 74.8003C156.75 74.8003 159.622 71.9294 159.622 68.3875V42.7344C159.622 39.1922 156.75 36.3209 153.208 36.3209Z" fill="black"/>
<path d="M135.117 23.4943C131.575 23.4943 128.704 26.3655 128.704 29.9075V81.2139C128.704 84.7558 131.575 87.627 135.117 87.627C138.659 87.627 141.53 84.7558 141.53 81.2139V29.9078C141.53 26.3658 138.659 23.4943 135.117 23.4943Z" fill="black"/>
<path d="M117.026 10.6678C113.484 10.6678 110.613 13.5391 110.613 17.081V39.7668H59.3064V17.081C59.3064 13.5391 56.4352 10.6678 52.8932 10.6678C49.351 10.6678 46.4797 13.5391 46.4797 17.081V42.7341V68.3871V94.0405C46.4797 97.5824 49.351 100.454 52.8929 100.454C56.4349 100.454 59.3061 97.5824 59.3061 94.0405V71.3547H110.613V94.0405C110.613 97.5824 113.484 100.454 117.026 100.454C120.568 100.454 123.439 97.5824 123.439 94.0405V68.3874V42.7344V17.081C123.439 13.5391 120.568 10.6678 117.026 10.6678ZM59.3064 59.6767V51.4446H110.613V59.6767H59.3064Z" fill="black"/>
</g>
<defs>
<clipPath id="clip0_1_11">
<rect width="170" height="110" fill="white" transform="translate(0 0.439209)"/>
</clipPath>
</defs>
</svg>
